<?xml version="1.0" encoding="UTF-8"?>
<svg version="1.1" xmlns="http://www.w3.org/2000/svg" width="500" height="500">
<path d="M0 0 C165 0 330 0 500 0 C500 165 500 330 500 500 C335 500 170 500 0 500 C0 335 0 170 0 0 Z " fill="#FEFEFE" transform="translate(0,0)"/>
<path d="M0 0 C2.2421875 1.40234375 2.2421875 1.40234375 4.375 3 C5.16132813 3.55816406 5.94765625 4.11632812 6.7578125 4.69140625 C13.89629273 10.33386834 18.44719275 18.09306903 20.375 27 C21.28491526 39.99878945 20.61191523 50.75464716 12.1875 61.375 C5.93408415 67.92879827 -2.33583899 72.52863436 -11.39453125 73.3359375 C-19.16820084 73.51046597 -25.93340731 73.37028437 -32.625 69 C-33.39328125 68.51402344 -34.1615625 68.02804687 -34.953125 67.52734375 C-40.94895933 63.32827434 -44.44884889 58.54572168 -47.625 52 C-47.9653125 51.32582031 -48.305625 50.65164063 -48.65625 49.95703125 C-52.4732936 40.82086671 -52.10164214 28.67316727 -48.625 19.5 C-44.43039462 10.88628923 -38.22075352 4.27214097 -29.625 0 C-28.91085938 -0.36351562 -28.19671875 -0.72703125 -27.4609375 -1.1015625 C-19.39138734 -3.65803156 -7.6866458 -3.60653049 0 0 Z " fill="#FCFCFC" transform="translate(258.625,214)"/>
<path d="M0 0 C10.15430243 6.08537983 16.95515858 13.80444116 20.203125 25.3203125 C20.63917656 28.25110144 20.72843779 31.10999728 20.703125 34.0703125 C20.69740479 34.855271 20.69168457 35.64022949 20.68579102 36.44897461 C20.35822439 47.21455638 15.93834585 56.77921881 8.203125 64.3203125 C-1.91114514 71.78560713 -11.54882363 73.29722587 -23.796875 72.3203125 C-27.19916433 71.47334939 -29.85715819 70.20928716 -32.796875 68.3203125 C-33.48007813 67.9078125 -34.16328125 67.4953125 -34.8671875 67.0703125 C-43.32822991 61.40817005 -48.35270549 53.07212109 -50.796875 43.3203125 C-52.88187566 29.66758188 -50.27580561 19.23279265 -42.1953125 8.1171875 C-31.88006761 -3.57003578 -13.97357737 -6.79667198 0 0 Z " fill="#FDFDFD" transform="translate(175.796875,214.6796875)"/>
<path d="M0 0 C4.58491416 3.83405141 8.41431215 7.58634889 11 13 C0.08898199 20.47196596 -10.82588069 27.93824301 -21.75927734 35.37744141 C-26.36722362 38.51443654 -30.96577019 41.66375178 -35.546875 44.83984375 C-36.4234375 45.44570313 -37.3 46.0515625 -38.203125 46.67578125 C-39.86724879 47.82688528 -41.52882704 48.98168043 -43.1875 50.140625 C-43.92484375 50.64980469 -44.6621875 51.15898437 -45.421875 51.68359375 C-46.06737305 52.13275146 -46.71287109 52.58190918 -47.37792969 53.04467773 C-49 54 -49 54 -51 54 C-52.625 52 -52.625 52 -54 50 C-52.54129454 46.35546527 -50.76728685 44.8624107 -47.50390625 42.7421875 C-46.56482422 42.12472656 -45.62574219 41.50726563 -44.65820312 40.87109375 C-43.63662109 40.21238281 -42.61503906 39.55367187 -41.5625 38.875 C-39.39688885 37.45610542 -37.23153471 36.03681852 -35.06640625 34.6171875 C-33.91166639 33.86418834 -32.75688032 33.11126005 -31.60205078 32.35839844 C-25.98098238 28.68651404 -20.40394522 24.94828826 -14.82199097 21.21734619 C-11.90373186 19.26753872 -8.98300994 17.32143436 -6.0625 15.375 C-5.08410156 14.72273438 -4.10570312 14.07046875 -3.09765625 13.3984375 C-2.40542969 12.93695313 -1.71320313 12.47546875 -1 12 C-2.616174 8.49731344 -4.04159723 6.97497455 -7.3125 4.875 C-8.07175781 4.37742188 -8.83101563 3.87984375 -9.61328125 3.3671875 C-17.95588394 -1.41171748 -27.60975618 -1.15537379 -37 0 C-45.85055095 2.79873685 -53.05781946 7.70795811 -57.6875 15.8125 C-58.26886719 16.80894531 -58.85023438 17.80539063 -59.44921875 18.83203125 C-64.15981941 28.45494595 -64.78186468 39.75949177 -61.375 49.9375 C-57.81804469 58.31997509 -52.68698134 64.17063254 -45 69 C-44.36835938 69.41507812 -43.73671875 69.83015625 -43.0859375 70.2578125 C-35.14044167 74.64470788 -24.62324858 74.28655302 -15.9609375 72.3046875 C-7.08619673 69.03504616 0.25600695 63.20696721 5 55 C7.43991878 49.51992684 9.3522969 43.9912537 10 38 C12.31 38 14.62 38 17 38 C17.79490864 48.53253945 13.64658892 57.93231412 7 66 C-2.16271875 75.7254961 -12.90055667 80.88112081 -26.1875 81.375 C-38.88893385 81.13978826 -50.64461799 76.28442877 -59.875 67.5625 C-62.92504834 64.33218875 -64.98557606 60.94827092 -67 57 C-67.09796875 57.58007812 -67.1959375 58.16015625 -67.296875 58.7578125 C-68.43745289 64.71634871 -69.8117406 69.44939248 -74.7578125 73.40625 C-82.59372198 78.69164777 -90.41969137 79.29607544 -99.625 79.1953125 C-100.61250244 79.1924826 -101.60000488 79.18965271 -102.61743164 79.18673706 C-105.74508215 79.1756182 -108.87243728 79.15052916 -112 79.125 C-114.13150626 79.11495948 -116.26301704 79.10583551 -118.39453125 79.09765625 C-123.5964535 79.07570612 -128.79820564 79.04231207 -134 79 C-134 77.02 -134 75.04 -134 73 C-132.74453369 72.98541748 -131.48906738 72.97083496 -130.19555664 72.95581055 C-125.50435976 72.897511 -120.81362706 72.82028141 -116.12280273 72.73754883 C-114.09879126 72.70444772 -112.07469076 72.67637043 -110.05053711 72.65356445 C-107.12836027 72.61974463 -104.20698842 72.56741659 -101.28515625 72.51171875 C-100.39103531 72.50532883 -99.49691437 72.4989389 -98.57569885 72.49235535 C-91.43991312 72.32815538 -83.29113142 71.29113142 -78 66 C-76.44947351 61.34842053 -76.40897263 56.85337773 -77 52 C-81.40743427 44.18035855 -89.49391719 42.37041736 -97.625 40 C-101.38830015 38.95328123 -105.15700456 37.95432504 -108.953125 37.03515625 C-119.3360917 34.48824536 -126.58539025 31.74719512 -133 23 C-135.32639826 18.34720348 -134.40464912 12.06389467 -134 7 C-131.72061978 1.8941883 -127.53411507 -1.77036351 -123 -5 C-120.16987873 -5.94337376 -118.45700082 -6.12172829 -115.52856445 -6.11352539 C-114.17750359 -6.11341209 -114.17750359 -6.11341209 -112.79914856 -6.11329651 C-111.83031235 -6.10813522 -110.86147614 -6.10297394 -109.86328125 -6.09765625 C-108.37141548 -6.09553383 -108.37141548 -6.09553383 -106.84941101 -6.09336853 C-103.67041018 -6.08776761 -100.49147957 -6.07521496 -97.3125 -6.0625 C-95.15820414 -6.05748512 -93.00390718 -6.05292219 -90.84960938 -6.04882812 C-85.56638226 -6.03779788 -80.28319615 -6.02105886 -75 -6 C-75 -4.02 -75 -2.04 -75 0 C-76.86132568 0.01401855 -76.86132568 0.01401855 -78.76025391 0.02832031 C-83.37877866 0.06829283 -87.99664238 0.13407207 -92.61474609 0.20751953 C-94.61075325 0.23568703 -96.60687106 0.25692252 -98.60302734 0.27099609 C-101.47811364 0.29248403 -104.35187529 0.33916426 -107.2265625 0.390625 C-108.11429352 0.39185364 -109.00202454 0.39308228 -109.91665649 0.39434814 C-115.42361045 0.52355709 -118.62729781 1.33861796 -123 5 C-126.1745783 8.70367469 -126.53581734 12.12858586 -126.33984375 16.85546875 C-125.79847916 20.27166601 -124.58646323 21.73684468 -122 24 C-115.45136069 27.77340764 -108.97605413 29.40347034 -101.625 31 C-90.24696166 33.48894589 -80.57109632 35.80156005 -72 44 C-71.98582031 42.83984375 -71.97164063 41.6796875 -71.95703125 40.484375 C-71.55599043 24.57585377 -67.4760375 12.97706264 -55.8125 1.8125 C-39.73980889 -12.02635947 -17.29309818 -10.84832287 0 0 Z " fill="#0A0A0A" transform="translate(441,213)"/>
<path d="M0 0 C8.2367815 6.70435703 13.05521376 13.69131322 17.6875 23.1875 C18.05101562 22.40246094 18.41453125 21.61742187 18.7890625 20.80859375 C24.78462583 8.27940372 32.06363385 -0.1619408 45.375 -5.25 C57.83185747 -8.97421512 69.20084993 -7.34331905 80.4375 -1.375 C90.93815391 4.77616295 97.52128276 13.88571154 101.44140625 25.40234375 C104.50951139 37.26711399 102.56534463 48.17221541 97.6875 59.1875 C91.9905654 68.85673888 83.25544504 76.46225036 72.6875 80.1875 C71.594375 80.6 70.50125 81.0125 69.375 81.4375 C57.07934031 83.93831214 45.53994422 81.69856932 35.03515625 74.90625 C27.53360301 69.41426427 22.23458494 62.8402375 18.6875 54.1875 C18.6875 52.8675 18.6875 51.5475 18.6875 50.1875 C18.0275 50.1875 17.3675 50.1875 16.6875 50.1875 C16.64625 50.97125 16.605 51.755 16.5625 52.5625 C14.05841435 62.93656911 6.66302563 70.82636626 -2.125 76.4375 C-12.59101292 82.3325133 -23.73244934 84.16602984 -35.5 81.0625 C-43.12587004 78.42946344 -49.97604195 74.26513278 -55.3125 68.1875 C-55.79203125 67.72214844 -56.2715625 67.25679688 -56.765625 66.77734375 C-63.21509157 60.14872533 -66.7838208 50.35127285 -67.3125 41.1875 C-67.36277344 40.52878906 -67.41304688 39.87007812 -67.46484375 39.19140625 C-68.01941441 26.74684057 -63.43004712 15.94158926 -55.625 6.5 C-51.40920237 1.95930068 -46.85444717 -1.08952753 -41.3125 -3.8125 C-40.62800781 -4.1528125 -39.94351563 -4.493125 -39.23828125 -4.84375 C-25.92126852 -10.32274952 -12.04294807 -6.58953762 0 0 Z M-50.7109375 10.984375 C-58.96134482 22.3337158 -61.08658112 32.32988437 -59.3125 46.1875 C-57.01694736 57.598532 -50.24000839 65.33282245 -40.83984375 71.77734375 C-35.52761692 74.74135284 -30.58788201 75.57691824 -24.5625 75.5625 C-23.85947754 75.56088867 -23.15645508 75.55927734 -22.43212891 75.55761719 C-16.42110349 75.41689545 -11.60523858 74.10307768 -6.3125 71.1875 C-5.260625 70.630625 -4.20875 70.07375 -3.125 69.5 C4.56676118 63.17566303 10.69605877 54.06892089 11.95800781 44.03710938 C12.62995773 35.18538919 12.63599341 26.84075999 7.6875 19.1875 C7.03394531 18.03894531 7.03394531 18.03894531 6.3671875 16.8671875 C1.6800141 9.10645778 -4.75040992 3.99416912 -13.28515625 0.890625 C-26.9689237 -2.28754034 -41.03269512 0.01887871 -50.7109375 10.984375 Z M39.6875 5.1875 C38.90117187 5.74566406 38.11484375 6.30382812 37.3046875 6.87890625 C30.21848574 12.48004592 26.51253167 19.71240499 23.6875 28.1875 C22.76623542 42.20280376 24.28238435 54.06643946 33.6875 65.1875 C36.17538153 67.54388674 38.76616061 69.40434479 41.6875 71.1875 C42.65236328 71.80818359 42.65236328 71.80818359 43.63671875 72.44140625 C51.57463881 76.78080255 61.5699093 76.54794549 70.140625 74.26953125 C80.64835229 70.19052656 87.72293642 63.67795006 92.51000977 53.42602539 C94.61946229 48.35318991 95.19918022 43.84196455 95.125 38.375 C95.11742676 37.58818848 95.10985352 36.80137695 95.10205078 35.99072266 C94.81956013 25.95096351 91.68389843 17.50895234 84.6875 10.1875 C76.83788402 3.06841397 69.96146713 -0.39693842 59.375 -0.3125 C58.53340332 -0.30605469 57.69180664 -0.29960937 56.82470703 -0.29296875 C50.09479767 -0.09506853 45.15461934 1.09216702 39.6875 5.1875 Z " fill="#0D0D0D" transform="translate(184.3125,211.8125)"/>
<path d="M0 0 C8.5240252 5.04109017 15.16134017 12.42844537 18 22 C18.52312129 26.82211581 18.46700552 31.59584481 18.390625 36.44140625 C18.38314917 37.81859 18.37746259 39.19578452 18.37347412 40.57298279 C18.35832291 44.16857131 18.31913527 47.76349632 18.2746582 51.35882568 C18.23347571 55.03925607 18.21541448 58.71979542 18.1953125 62.40039062 C18.15262788 69.60056038 18.08450811 76.80018663 18 84 C16.02 84 14.04 84 12 84 C11.99453156 82.96548958 11.99453156 82.96548958 11.98895264 81.91007996 C11.9508587 75.36455243 11.89376757 68.81948636 11.81609726 62.27430248 C11.776829 58.91047086 11.74454097 55.5468929 11.72900391 52.18286133 C11.70744222 48.30247739 11.66072075 44.42305944 11.609375 40.54296875 C11.60814636 39.35293747 11.60691772 38.16290619 11.60565186 36.93681335 C11.45431543 28.18484567 10.55223134 19.34482943 4 13 C4 12.34 4 11.68 4 11 C3.1646875 10.5978125 3.1646875 10.5978125 2.3125 10.1875 C0 9 0 9 -2.5 7.4375 C-9.24388611 3.55976549 -19.08532611 3.80185745 -26.515625 5.61328125 C-33.00714915 8.51402137 -37.56616704 13.98107455 -40.56445312 20.29394531 C-42.74127885 26.2669155 -42.47957001 32.40225588 -42.51171875 38.6875 C-42.52966995 39.98574707 -42.54762115 41.28399414 -42.56611633 42.62158203 C-42.61332599 46.0474958 -42.64332174 49.47334508 -42.66955566 52.8994751 C-42.69950919 56.40576918 -42.74598804 59.91184159 -42.79101562 63.41796875 C-42.87671734 70.27851889 -42.94420861 77.13914312 -43 84 C-45.31 84 -47.62 84 -50 84 C-50.09315209 76.34980545 -50.16399231 68.69967056 -50.20724869 61.04903603 C-50.22802189 57.49553861 -50.25614773 53.94243246 -50.30175781 50.38916016 C-50.35399721 46.29325857 -50.37302984 42.19776058 -50.390625 38.1015625 C-50.41127014 36.8407486 -50.43191528 35.57993469 -50.45318604 34.28091431 C-50.45595104 23.29417141 -47.80567058 14.02157211 -40 6 C-28.38179316 -3.59353561 -14.12414026 -6.54533329 0 0 Z " fill="#080808" transform="translate(98,208)"/>
<path d="M0 0 C2.31 0 4.62 0 7 0 C7 28.05 7 56.1 7 85 C4.69 85 2.38 85 0 85 C0 56.95 0 28.9 0 0 Z " fill="#0C0C0C" transform="translate(293,207)"/>
<path d="M0 0 C2.4375 0.75 2.4375 0.75 4.4375 2.75 C4.0625 6.375 4.0625 6.375 3.4375 9.75 C1.1275 10.08 -1.1825 10.41 -3.5625 10.75 C-5.125 9.0625 -5.125 9.0625 -6.5625 6.75 C-6.4375 4.125 -6.4375 4.125 -5.5625 1.75 C-2.5625 -0.25 -2.5625 -0.25 0 0 Z " fill="#131313" transform="translate(297.5625,177.25)"/>
<path d="M0 0 C0.33 0 0.66 0 1 0 C1 3.96 1 7.92 1 12 C-1.5 10.1875 -1.5 10.1875 -4 8 C-4 7.01 -4 6.02 -4 5 C-3.01 4.67 -2.02 4.34 -1 4 C-0.26676204 1.98491642 -0.26676204 1.98491642 0 0 Z " fill="#E0E0E0" transform="translate(369,246)"/>
<path d="M0 0 C0.66 0.33 1.32 0.66 2 1 C1.278125 1.70125 0.55625 2.4025 -0.1875 3.125 C-2.99823813 5.92770745 -5.49516226 8.92262792 -8 12 C-8 8.24111186 -7.049166 7.58681685 -4.5625 4.875 C-3.92441406 4.17117187 -3.28632813 3.46734375 -2.62890625 2.7421875 C-1.76410115 1.81724008 -0.89538137 0.89538137 0 0 Z " fill="#E7E7E7" transform="translate(139,218)"/>
<path d="M0 0 C2.52588702 2.36292656 3.88820837 3.66462511 5 7 C0.125 5.25 0.125 5.25 -1 3 C-0.67 2.01 -0.34 1.02 0 0 Z " fill="#E2E2E2" transform="translate(186,223)"/>
</svg>
